<?xml version="1.0" standalone="no"?>
<!DOCTYPE svg PUBLIC "-//W3C//DTD SVG 20010904//EN"
 "http://www.w3.org/TR/2001/REC-SVG-20010904/DTD/svg10.dtd">
<svg version="1.0" xmlns="http://www.w3.org/2000/svg"
 width="100.000000pt" height="100.000000pt" viewBox="0 0 100.000000 100.000000"
 preserveAspectRatio="xMidYMid meet">
<metadata>
Created by potrace 1.16, written by Peter Selinger 2001-2019
</metadata>
<g transform="translate(0.000000,100.000000) scale(0.009259,-0.009259)"
fill="#000000" stroke="none">
<path d="M4605 8183 c-33 -14 -127 -40 -210 -59 -217 -48 -347 -96 -432 -160
-27 -21 -35 -22 -60 -13 -81 33 -322 1 -418 -56 -53 -31 -72 -53 -139 -162
-98 -160 -190 -219 -331 -211 -36 1 -65 0 -65 -3 0 -11 62 -69 115 -109 72
-53 143 -80 220 -83 35 -1 65 -4 65 -7 0 -21 -264 -512 -325 -605 -43 -65 -88
-142 -101 -172 -32 -72 -95 -173 -143 -230 -81 -97 -101 -188 -101 -465 0
-209 10 -289 47 -371 48 -108 147 -162 252 -138 l43 9 25 -56 c14 -32 29 -68
34 -81 l10 -24 -298 6 c-164 4 -389 10 -500 14 l-203 6 0 -86 0 -87 3310 0
3310 0 0 87 0 86 -202 -6 c-112 -4 -337 -10 -502 -14 -292 -6 -298 -6 -288 13
16 30 110 286 164 444 225 665 375 1497 395 2193 l6 207 -1518 0 c-835 0
-1516 -2 -1514 -4 2 -3 36 -12 74 -20 150 -35 305 -93 475 -178 l175 -88 973
0 972 0 0 -138 c0 -223 -29 -600 -66 -867 -36 -263 -134 -747 -154 -769 -14
-14 -430 220 -430 243 0 4 42 5 93 4 85 -4 90 -3 72 12 -125 98 -314 270 -437
400 -284 297 -472 479 -570 550 -53 39 -97 73 -97 78 -1 4 23 8 52 8 28 1 65
4 81 8 28 6 26 8 -75 87 -280 219 -585 391 -833 470 -196 62 -463 113 -723
137 l-128 12 -1 85 c0 78 -14 131 -32 130 -4 -1 -34 -12 -67 -27z m-45 -159
c0 -57 -116 -127 -256 -154 -104 -20 -151 -53 -216 -152 -32 -47 -61 -100 -64
-117 -6 -29 -5 -31 24 -31 16 0 46 7 65 15 82 34 99 10 67 -96 l-21 -70 -32 7
c-144 32 -302 -42 -453 -213 -38 -42 -106 -113 -152 -158 -45 -44 -82 -86 -82
-93 0 -7 15 -19 34 -27 42 -18 67 -68 74 -150 5 -73 -6 -98 -83 -195 -80 -98
-96 -135 -96 -220 l0 -72 -27 25 c-45 42 -103 77 -129 77 -25 0 -117 -43 -128
-60 -4 -6 9 -10 32 -11 67 -1 106 -20 126 -62 46 -98 44 -381 -3 -447 -19 -27
-147 -100 -175 -100 -17 0 -67 -96 -63 -123 5 -33 57 -25 155 24 103 52 195
134 259 234 37 57 58 80 89 94 22 11 90 42 151 70 122 55 217 108 263 146 42
36 59 93 69 237 10 130 28 190 64 212 31 18 41 -8 50 -129 11 -136 18 -162 54
-175 45 -17 342 45 388 81 53 42 86 186 107 470 6 90 13 165 14 167 2 2 14 0
29 -4 l26 -6 0 -231 0 -230 -37 -66 c-99 -180 -192 -289 -284 -337 -52 -27
-60 -29 -244 -34 -216 -6 -206 -3 -410 -120 -165 -94 -285 -181 -333 -241
-105 -130 -278 -246 -401 -269 -102 -19 -165 33 -205 169 -25 86 -38 263 -27
363 11 93 25 130 77 193 17 22 55 77 82 122 28 46 107 163 177 262 164 235
251 376 332 539 47 96 81 151 120 193 63 68 167 140 250 173 56 23 58 25 88
97 73 171 126 255 183 287 20 11 93 32 162 47 138 30 207 54 260 90 45 31 50
31 50 -1z m159 -259 c241 -51 531 -130 596 -162 139 -71 494 -425 1046 -1043
161 -180 314 -325 536 -507 251 -205 523 -399 636 -454 26 -13 47 -28 47 -34
0 -6 -17 -62 -39 -125 l-39 -115 -46 -3 c-54 -4 -356 22 -501 43 -126 18 -297
18 -396 1 -88 -16 -187 -60 -316 -139 l-91 -57 -242 0 -243 0 7 48 c18 137 26
373 16 487 -12 136 -67 374 -130 558 -22 65 -40 122 -40 125 0 19 98 -118 142
-198 35 -65 87 -192 113 -280 25 -82 99 -423 111 -505 3 -27 10 -56 13 -63 18
-34 150 459 176 656 19 146 19 338 0 422 -43 183 -254 513 -475 744 -130 135
-230 202 -465 310 -146 66 -417 176 -436 176 -6 0 14 -28 45 -61 63 -70 159
-205 154 -218 -2 -4 -81 30 -175 75 l-173 83 0 51 c0 40 6 61 29 93 15 23 36
57 45 75 9 17 18 32 21 32 2 0 35 -7 74 -15z m-616 -542 c-30 -81 -132 -173
-192 -173 -12 0 -44 -21 -73 -48 -59 -53 -122 -102 -131 -102 -3 0 14 30 38
67 24 37 61 104 82 150 l38 83 45 1 c25 0 70 8 100 19 74 24 101 25 93 3z
m641 -1137 c125 -257 246 -675 246 -852 l0 -64 -108 0 -108 0 -12 173 c-19
253 -29 298 -126 539 -47 118 -86 219 -86 224 0 5 23 31 50 59 28 27 50 54 50
59 0 28 47 -41 94 -138z m-297 -243 c101 -291 153 -498 153 -612 l0 -61 -392
1 c-216 1 -496 4 -622 8 l-230 6 -24 60 c-37 91 -72 189 -72 200 0 5 22 25 49
43 43 29 162 146 218 214 43 53 350 244 446 278 46 16 84 20 209 21 84 0 162
4 173 9 11 4 24 4 29 0 4 -5 33 -79 63 -167z"/>
<path d="M3046 6169 c-61 -10 -125 -53 -148 -99 -10 -19 -18 -57 -18 -84 l0
-49 68 65 c58 56 117 98 137 98 3 0 13 -16 21 -36 19 -45 7 -88 -37 -130 -38
-36 -59 -75 -59 -109 l0 -27 31 19 c64 41 122 98 140 137 38 84 15 195 -44
216 -17 5 -33 9 -36 9 -3 -1 -28 -5 -55 -10z"/>
<path d="M6255 6058 c0 -176 -12 -250 -67 -428 -44 -145 -68 -260 -54 -260 7
0 32 10 57 21 68 33 245 98 328 119 119 32 330 27 741 -15 l55 -6 -80 41
c-520 267 -560 293 -842 564 -72 69 -133 126 -135 126 -1 0 -3 -73 -3 -162z"/>
<path d="M2523 7843 c10 -359 57 -770 133 -1176 20 -106 39 -205 41 -220 3
-15 9 -27 14 -25 21 7 104 133 163 247 l65 124 -19 186 c-27 267 -40 471 -40
637 l0 144 175 0 175 0 74 113 c55 86 84 121 121 145 l48 32 -478 0 -478 0 6
-207z"/>
<path d="M2187 4823 c-4 -3 -7 -80 -7 -171 l0 -164 43 4 42 3 0 -280 0 -279
-42 -9 -43 -8 0 -163 c0 -89 3 -165 6 -168 3 -3 29 0 57 8 29 8 106 25 172 39
140 30 210 61 259 115 51 57 66 119 66 275 0 154 -8 186 -56 211 -18 10 -34
22 -34 26 0 4 11 24 25 44 24 36 25 42 25 207 0 150 -2 176 -20 211 -23 48
-68 81 -130 95 -50 12 -353 15 -363 4z m378 -333 c14 -15 17 -32 13 -90 -5
-93 -19 -107 -115 -116 l-73 -7 0 111 c0 126 -6 119 96 121 49 1 64 -3 79 -19z
m33 -316 c19 -13 22 -24 22 -78 0 -88 -14 -102 -113 -121 -126 -24 -117 -31
-117 89 l0 105 48 6 c26 3 54 8 62 9 38 9 77 5 98 -10z"/>
<path d="M2830 4763 c0 -38 -3 -105 -7 -150 l-6 -83 47 0 46 0 0 -249 0 -249
-45 -6 -45 -7 0 -150 0 -151 28 6 c15 3 122 22 237 41 116 20 222 38 238 41
l27 6 0 235 0 235 -22 -6 c-13 -3 -37 -6 -55 -6 l-31 0 -7 -67 c-3 -38 -8 -78
-11 -91 -6 -29 -48 -47 -131 -57 l-63 -7 0 245 0 246 48 3 47 3 3 143 3 142
-151 0 -150 0 0 -67z"/>
<path d="M3580 4695 l0 -135 31 0 c20 0 29 -4 27 -13 -2 -7 -32 -110 -68 -230
-63 -213 -65 -217 -91 -217 -59 0 -59 -1 -59 -146 0 -101 3 -134 13 -133 6 0
71 8 142 17 l130 18 3 133 3 133 -41 -4 c-22 -2 -40 -2 -40 0 0 12 33 118 39
123 3 4 49 10 101 14 l95 7 22 -61 22 -60 -45 -7 -44 -6 0 -129 0 -129 58 6
c31 4 98 12 147 18 l90 11 3 122 3 122 -47 3 -47 3 -68 200 c-38 110 -69 203
-69 208 0 4 14 7 30 7 l30 0 0 130 0 130 -185 0 -185 0 0 -135z"/>
<path d="M4310 4812 c-19 -9 -44 -31 -56 -49 -20 -30 -21 -46 -26 -355 -3
-192 -1 -337 5 -358 5 -19 27 -52 48 -72 97 -93 305 -65 372 51 25 41 38 263
18 276 -7 4 -37 4 -67 0 l-54 -6 0 -42 c0 -23 -4 -47 -8 -53 -14 -22 -52 -34
-106 -34 -83 0 -86 8 -86 206 0 197 4 205 96 212 77 5 104 -14 109 -78 l3 -45
58 0 59 0 3 183 2 182 -60 0 c-57 0 -60 -1 -60 -25 0 -14 -1 -25 -2 -25 -2 0
-25 11 -52 25 -60 31 -144 34 -196 7z"/>
<path d="M4777 4824 c-4 -4 -7 -58 -7 -121 l0 -113 45 0 45 0 -2 -197 -3 -198
-42 -3 -43 -3 0 -121 0 -121 141 6 c77 3 142 7 145 10 2 2 7 54 11 115 l6 112
-46 0 -47 0 0 75 c0 41 2 75 5 75 3 0 49 -30 103 -67 78 -55 93 -69 75 -71
-22 -3 -23 -7 -23 -123 l0 -120 148 3 147 3 0 115 0 115 -42 5 c-33 4 -72 26
-177 100 -74 52 -135 98 -136 101 0 3 62 47 138 98 96 63 148 92 172 94 l35 2
3 118 3 117 -146 0 -145 0 0 -121 c0 -116 1 -121 20 -116 11 3 20 2 20 -2 0
-7 -89 -71 -172 -123 l-28 -18 0 70 0 69 43 3 42 3 0 115 0 115 -141 3 c-77 1
-143 -1 -147 -4z"/>
<path d="M5500 4710 l0 -120 40 0 40 0 0 -195 0 -195 -40 0 -40 0 0 -120 0
-120 135 0 c74 0 138 -1 143 -2 4 -2 8 50 10 114 l3 117 -43 3 -43 3 -3 78 -3
77 111 0 110 0 0 -79 0 -80 -42 -3 -43 -3 -3 -113 c-2 -85 1 -113 10 -116 7
-3 75 -7 151 -9 l137 -5 0 119 c0 88 -3 119 -12 120 -7 1 -17 2 -23 4 -5 1
-20 3 -32 3 l-23 2 0 200 0 200 39 0 40 0 3 110 c2 61 2 115 0 120 -2 6 -63
10 -148 10 l-144 0 0 -120 0 -120 45 0 45 0 0 -80 0 -81 -107 3 -108 3 -3 78
-3 77 46 0 45 0 0 120 0 120 -145 0 -145 0 0 -120z"/>
<path d="M6341 4816 c-24 -8 -54 -25 -68 -38 -51 -46 -53 -64 -53 -396 0 -299
1 -309 23 -352 18 -37 33 -51 89 -79 62 -31 74 -34 165 -35 87 0 103 2 141 24
73 41 72 37 72 412 0 326 -1 335 -22 378 -35 69 -88 94 -208 97 -62 2 -110 -2
-139 -11z m228 -253 c21 -17 22 -27 24 -196 2 -209 3 -207 -97 -207 -82 0
-135 16 -145 43 -5 12 -9 91 -10 176 -2 202 -3 201 118 201 70 0 93 -4 110
-17z"/>
<path d="M6798 4823 c-2 -5 -2 -63 0 -130 l3 -123 45 0 44 0 0 -215 0 -215
-45 0 -45 0 0 -124 0 -123 88 -11 c48 -6 117 -14 155 -18 l67 -7 0 130 0 130
-50 7 -50 7 0 91 0 91 71 -5 c39 -3 76 -11 82 -17 8 -8 14 -74 17 -194 6 -203
12 -227 73 -252 36 -14 205 -40 213 -32 3 3 2 65 -3 139 l-8 133 -62 7 c-35 4
-67 10 -73 13 -5 3 -10 36 -10 72 0 72 -21 129 -51 138 -23 8 -25 25 -3 25 9
0 31 15 50 34 l34 34 0 142 c0 125 -3 147 -20 179 -24 41 -70 74 -126 90 -44
12 -391 15 -396 4z m405 -280 c26 -24 24 -128 -2 -143 -22 -11 -77 -13 -143
-4 l-45 6 -7 75 c-3 41 -3 79 0 84 9 16 176 0 197 -18z"/>
<path d="M7625 4811 c-76 -46 -88 -88 -83 -293 3 -140 5 -160 24 -184 36 -48
68 -65 145 -75 41 -6 88 -13 106 -15 51 -8 63 -27 63 -102 0 -96 -9 -104 -103
-91 -79 10 -97 28 -97 94 l0 52 -66 7 c-37 4 -67 6 -68 4 0 -2 0 -96 2 -209
l3 -207 47 -7 c26 -3 55 -8 65 -11 14 -4 17 1 17 26 l0 32 37 -32 c98 -86 221
-81 268 10 12 23 15 72 15 232 0 279 -8 292 -180 310 -140 15 -135 11 -138 97
-2 53 1 77 10 82 7 5 40 9 73 9 83 0 105 -16 105 -79 0 -55 9 -61 88 -61 l42
0 -2 213 -3 212 -65 0 c-65 0 -65 0 -63 -27 2 -31 -8 -36 -28 -12 -38 46 -157
60 -214 25z"/>
<path d="M8090 4675 l0 -155 39 0 39 0 7 -112 c3 -62 5 -180 3 -263 l-3 -150
-43 3 -43 4 3 -153 3 -152 200 -42 c110 -24 226 -49 257 -58 31 -8 59 -12 62
-9 3 3 6 119 6 258 l0 253 -32 5 c-88 15 -83 18 -86 -55 -4 -96 -17 -105 -122
-89 l-80 12 0 104 0 104 28 -1 c15 0 51 -4 80 -8 l52 -7 0 58 0 58 -34 0 c-18
0 -54 3 -80 6 l-46 7 0 109 0 110 83 -7 c116 -10 117 -11 117 -99 0 -82 3 -86
83 -86 l37 0 -2 253 -3 252 -262 3 -263 2 0 -155z"/>
<path d="M4845 3714 c-33 -2 -154 -8 -270 -14 -712 -37 -1443 -130 -2025 -260
-133 -29 -403 -98 -434 -110 l-26 -10 0 -140 c0 -153 1 -155 58 -126 51 26
357 133 512 179 284 84 631 164 945 216 141 24 486 71 518 71 14 0 57 -35 127
-103 235 -229 427 -386 690 -562 162 -108 434 -265 460 -265 22 0 296 156 435
247 245 161 468 341 692 557 l134 129 137 -17 c466 -57 937 -153 1342 -273
155 -46 461 -153 512 -179 57 -29 58 -27 58 126 l0 140 -26 10 c-15 6 -106 30
-203 54 -650 162 -1292 255 -2161 312 -217 15 -1305 28 -1475 18z m337 -152
c29 -49 212 -286 355 -461 l20 -24 184 148 c101 82 236 193 300 247 l117 97
48 -4 c27 -3 73 -7 103 -9 29 -3 55 -7 57 -9 8 -8 -169 -172 -295 -273 -163
-130 -478 -337 -629 -413 l-43 -22 -87 47 c-165 89 -380 231 -542 358 -99 78
-339 288 -339 298 -1 7 45 14 160 23 l77 7 53 -103 c48 -92 63 -111 139 -177
80 -69 439 -317 447 -309 2 3 -62 136 -142 297 -80 162 -145 297 -145 302 0 4
33 8 73 8 69 0 74 -1 89 -28z"/>
</g>
</svg>
